<svg xmlns="http://www.w3.org/2000/svg" width="15" height="13" viewBox="0 0 15 13"><g><g><path fill="#c2cfd7" d="M14.739 1.553a6.026 6.026 0 0 1-1.753.48A3.057 3.057 0 0 0 14.33.343a6.13 6.13 0 0 1-1.94.745A3.054 3.054 0 0 0 7.187 3.87 8.654 8.654 0 0 1 .893.678a3.055 3.055 0 0 0 .945 4.08 3.045 3.045 0 0 1-1.383-.383v.039a3.057 3.057 0 0 0 2.45 2.994 3.045 3.045 0 0 1-1.38.05 3.056 3.056 0 0 0 2.852 2.124 6.127 6.127 0 0 1-3.791 1.305c-.248 0-.49-.014-.73-.042a8.656 8.656 0 0 0 4.682 1.371c5.617 0 8.689-4.652 8.689-8.687 0-.13-.004-.264-.01-.395a6.22 6.22 0 0 0 1.523-1.58z"/></g></g></svg>