<svg xmlns="http://www.w3.org/2000/svg" width="16" height="16" viewBox="0 0 16 16"><g><g><path fill="#c2cfd7" d="M15.248 7.738a7.495 7.495 0 0 1-.587 2.908 7.463 7.463 0 0 1-2.704 3.282 7.274 7.274 0 0 1-2.673 1.125 7.256 7.256 0 0 1-1.504.154 7.268 7.268 0 0 1-1.505-.154 7.29 7.29 0 0 1-2.672-1.125 7.319 7.319 0 0 1-1.106-.909A7.454 7.454 0 0 1 .31 7.738a7.416 7.416 0 0 1 .588-2.906c.187-.445.42-.871.689-1.27A7.516 7.516 0 0 1 4.873.855a7.496 7.496 0 0 1 5.814 0 7.466 7.466 0 0 1 2.375 1.604c.336.337.644.707.91 1.103a7.445 7.445 0 0 1 1.276 4.176zm-2.542-4.05c-.014.017-1.035 1.495-3.554 2.525a19.348 19.348 0 0 1 .562 1.253c2.191-.275 4.35.19 4.442.207a6.36 6.36 0 0 0-1.45-3.986zM7.78 1.36c-.518 0-1.02.063-1.503.18A32.067 32.067 0 0 1 8.66 5.26c2.407-.902 3.316-2.285 3.332-2.308A6.353 6.353 0 0 0 7.78 1.36zm-1.546.19l.018-.004v-.002a.064.064 0 0 1-.018.005zm-.002 0h0zM1.537 6.424c.17.001 2.828.035 5.89-.778C6.322 3.683 5.141 2.084 5.058 1.97a6.39 6.39 0 0 0-3.522 4.454zm1.499 5.578l-.002-.004S4.778 8.9 8.221 7.788c.084-.027.167-.052.252-.076-.16-.363-.335-.726-.519-1.083-3.282.982-6.435.91-6.548.908-.002.066-.005.133-.005.201 0 1.639.62 3.133 1.635 4.264zm7.232 1.61c-.092-.559-.463-2.51-1.361-4.843-.014.002-.027.008-.042.012-3.783 1.32-5.006 3.986-5.006 3.986s-.06-.043-.142-.111a6.357 6.357 0 0 0 4.063 1.46c.884 0 1.725-.179 2.488-.503zm3.81-4.86c-.133-.043-1.917-.608-3.975-.28.835 2.3 1.176 4.172 1.24 4.555a6.37 6.37 0 0 0 2.735-4.275z"/></g></g></svg>