<svg xmlns="http://www.w3.org/2000/svg" width="16" height="15" viewBox="0 0 16 15"><g><g><path fill="#c2cfd7" d="M15.525 6.544v.646a.315.315 0 0 1-.313.315h-2.27v2.271c0 .172-.141.31-.314.31h-.647a.311.311 0 0 1-.313-.31V7.505H9.399a.316.316 0 0 1-.316-.315v-.646c0-.172.143-.315.316-.315h2.269V3.962c0-.174.14-.315.313-.315h.647c.173 0 .314.141.314.315v2.267h2.27c.172 0 .313.143.313.315zm-6.412 4.525c0 1.346-1.023 2.512-2.606 2.97a5.81 5.81 0 0 1-1.632.222 7.416 7.416 0 0 1-1.832-.22c-1.113-.28-1.938-.812-2.32-1.497a1.91 1.91 0 0 1-.248-.945c0-.334.079-.676.239-1.012C1.32 9.286 2.93 8.41 4.709 8.41h.052a1.573 1.573 0 0 1-.215-.795c0-.138.017-.277.055-.42-1.868-.045-3.264-1.412-3.264-3.215 0-1.273 1.016-2.511 2.472-3.013.436-.153.88-.229 1.317-.229h3.992a.314.314 0 0 1 .185.568l-.894.649a.327.327 0 0 1-.185.058h-.32c.413.495.656 1.2.656 1.993 0 .875-.444 1.7-1.248 2.334-.623.482-.646.615-.646.892.007.153.442.649.919.987 1.113.787 1.528 1.56 1.528 2.85zm-4.247 1.926c1.72 0 2.592-.594 2.592-1.762a1.42 1.42 0 0 0-.041-.34c-.116-.455-.531-.738-1.16-1.166l-.27-.185a3.105 3.105 0 0 0-.857-.131h-.037c-1.36 0-2.55.824-2.55 1.764 0 1.021 1.02 1.82 2.323 1.82zm-1.47-9.063c.157 1.182 1.02 2.204 1.882 2.23h.016c.324 0 .6-.128.813-.37.331-.381.48-1.004.393-1.666-.156-1.182-1-2.166-1.882-2.193h-.035c-.314 0-.592.128-.805.37-.328.376-.468.97-.382 1.629z"/></g></g></svg>