<svg xmlns="http://www.w3.org/2000/svg" width="15" height="15" viewBox="0 0 15 15"><g><g><path fill="#c2cfd7" d="M14.91 9.864v2.178a2.706 2.706 0 0 1-2.706 2.705H2.8A2.708 2.708 0 0 1 .09 12.042V9.864a2.708 2.708 0 0 1 2.708-2.707h9.405a2.707 2.707 0 0 1 2.705 2.707zM4.773 8.112H2.183v.74h.874v4.344H3.9V8.852h.874zm2.471 1.332h-.75v2.85a.99.99 0 0 1-.232.203.424.424 0 0 1-.21.078c-.07 0-.12-.021-.153-.062-.03-.037-.048-.102-.048-.192V9.444h-.75v3.137c0 .225.045.39.134.502.088.113.218.168.39.168a.93.93 0 0 0 .437-.12c.15-.077.293-.195.432-.345v.41h.75zm2.719.897c0-.309-.062-.543-.186-.701-.127-.162-.307-.24-.545-.24a.749.749 0 0 0-.345.09c-.114.058-.221.146-.32.259V8.112h-.76v5.084h.76v-.289a.955.955 0 0 0 .32.256c.113.055.244.08.392.08.221 0 .392-.068.508-.21.117-.143.176-.347.176-.612zm2.6.113c0-.357-.091-.627-.276-.816-.185-.192-.448-.285-.793-.285-.335 0-.605.101-.818.306-.213.205-.319.473-.319.795v1.686c0 .36.098.646.29.847.192.21.455.31.792.31.374 0 .656-.095.841-.288.19-.198.282-.488.282-.87v-.193h-.77v.172c0 .22-.025.36-.075.426-.05.066-.136.1-.26.1-.118 0-.205-.04-.255-.116-.05-.076-.071-.213-.071-.41v-.707h1.431zm-.85-.342c.053.065.079.178.079.336v.38h-.661v-.38c0-.158.023-.271.076-.336.052-.07.139-.103.256-.103.115 0 .199.033.25.103zm-2.6-.02c.053.067.077.16.077.29v1.937c0 .118-.021.202-.064.258-.044.055-.11.078-.201.078a.42.42 0 0 1-.183-.039.61.61 0 0 1-.176-.133v-2.338a.536.536 0 0 1 .155-.115.378.378 0 0 1 .158-.035c.1 0 .179.033.233.098zM4.03 3.637L2.898.253h.957l.617 2.24h.061L5.12.253h.967L4.98 3.53v2.324h-.95zm2.457 2.01c-.22-.209-.332-.485-.332-.839v-2.14c0-.32.113-.574.34-.764.228-.19.533-.285.916-.285.35 0 .636.1.86.3.221.2.333.46.333.774v2.133c0 .354-.109.629-.326.832-.222.201-.521.3-.906.3-.367 0-.664-.103-.885-.31zm.536-.758c0 .113.03.199.09.261.06.063.145.092.258.092.114 0 .204-.03.272-.092a.343.343 0 0 0 .102-.261V2.636a.274.274 0 0 0-.103-.22.411.411 0 0 0-.271-.081.372.372 0 0 0-.253.082.288.288 0 0 0-.095.219zm2.414.84c-.098-.123-.147-.305-.147-.553V1.724h.842v3.165c0 .098.02.17.054.213.034.044.092.067.172.067.06 0 .14-.03.236-.088.094-.057.18-.131.258-.22V1.723h.846v4.13h-.846v-.458a1.787 1.787 0 0 1-.484.388c-.168.086-.331.13-.488.13-.196 0-.343-.064-.443-.187z"/></g></g></svg>